{
  "title": "Ice Age Collision Course 2016 READNFO 720p HDRIP X264 AC3 TiTAN",
  "uid": 15664981,
  "size": 2577134743,
  "categoryP": "video",
  "categoryS": "hd___movies",
  "magnet": "?xt=urn:btih:338d9169e333dfb17e6b9dfa9534e7224af62d0c&amp;dn=Ice+Age+Collision+Course+2016+READNFO+720p+HDRIP+X264+AC3+TiTAN&amp;tr=udp%3A%2F%2Ftracker.leechers-paradise.org%3A6969&amp;tr=udp%3A%2F%2Fzer0day.ch%3A1337&amp;tr=udp%3A%2F%2Fopen.demonii.com%3A1337&amp;tr=udp%3A%2F%2Ftracker.coppersurfer.tk%3A6969&amp;tr=udp%3A%2F%2Fexodus.desync.com%3A6969",
  "seeders": 97,
  "leechers": 30,
  "uploader": "makintos13",
  "files": 2,
  "time": 1472202902,
  "description": "Ice Age Collision Course 2016 READNFO 720p HDRIP X264 AC3 TiTAN\r\n\r\n\r\nScreens:\r\n \nhttps://imgmak.com/a9r\r\n \nhttps://imgmak.com/a9B\r\n \nhttps://imgmak.com/a9I\r\n \nhttps://imgmak.com/a9q\r\n \nhttps://imgmak.com/a9t\r\n \nhttps://imgmak.com/a92\r\n \nhttp://www.imdb.com/title/tt3416828/\r\n\r\nused korean 1080p webrip and synced CPG line audio to it..\r\nCame out pretty good.. Enjoy \r\n\r\nGeneral\r\n\r\nFormat                                   : Matroska\r\nFormat version                           : Version 2\r\nFile size                                : 2.40 GiB\r\nDuration                                 : 1h 34mn\r\nOverall bit rate mode                    : Variable\r\nOverall bit rate                         : 3 641 Kbps\r\nEncoded date                             : UTC 2016-08-26 01:31:58\r\n\r\nVideo\r\nID                                       : 1\r\nFormat                                   : AVC\r\nFormat/Info                              : Advanced Video Codec\r\nFormat profile                           :   \r\nFormat settings, CABAC                   : Yes\r\nFormat settings, ReFrames                : 3 frames\r\nCodec ID                                 : V_MPEG4/ISO/AVC\r\nDuration                                 : 1h 34mn\r\nBit rate mode                            : Variable\r\nBit rate                                 : 3 377 Kbps\r\nMaximum bit rate                         : 40.0 Mbps\r\nWidth                                    : 1 280 pixels\r\nHeight                                   : 720 pixels\r\nDisplay aspect ratio                     : 16:9\r\nFrame rate mode                          : Constant\r\nFrame rate                               : 23.976 fps\r\nColor space                              : YUV\r\nChroma subsampling                       : 4:2:0\r\nBit depth                                : 8 bits\r\nScan type                                : Progressive\r\nBits/(Pixel*Frame)                       : 0.153\r\nStream size                              : 2.23 GiB (93%)\r\nDefault                                  : Yes\r\nForced                                   : No\r\nColor primaries                          : BT.709\r\nTransfer characteristics                 : BT.709\r\nMatrix coefficients                      : BT.709\r\n\r\nAudio\r\nID                                       : 2\r\nFormat                                   : AC-3\r\nFormat/Info                              : Audio Coding 3\r\nMode extension                           : CM (complete main)\r\nFormat settings, Endianness              : Big\r\nCodec ID                                 : A_AC3\r\nDuration                                 : 1h 34mn\r\nBit rate mode                            : Constant\r\nBit rate                                 : 192 Kbps\r\nChannel(s)                               : 2 channels\r\nChannel positions                        : Front: L R\r\nSampling rate                            : 48.0 KHz\r\nBit depth                                : 16 bits\r\nCompression mode                         : Lossy\r\nStream size                              : 130 MiB (5%)\r\nLanguage                                 : English\r\nDefault                                  : Yes\r\nForced                                   : No",
  "parsed": {
    "xt": "urn:btih:338d9169e333dfb17e6b9dfa9534e7224af62d0c",
    "dn": "Ice Age Collision Course 2016 READNFO 720p HDRIP X264 AC3 TiTAN",
    "tr": [
      "udp://exodus.desync.com:6969",
      "udp://open.demonii.com:1337",
      "udp://tracker.coppersurfer.tk:6969",
      "udp://tracker.leechers-paradise.org:6969",
      "udp://zer0day.ch:1337"
    ],
    "infoHash": "338d9169e333dfb17e6b9dfa9534e7224af62d0c",
    "infoHashBuffer": {
      "type": "Buffer",
      "data": [
        51,
        141,
        145,
        105,
        227,
        51,
        223,
        177,
        126,
        107,
        157,
        250,
        149,
        52,
        231,
        34,
        74,
        246,
        45,
        12
      ]
    },
    "name": "Ice Age Collision Course 2016 READNFO 720p HDRIP X264 AC3 TiTAN",
    "announce": [
      "udp://exodus.desync.com:6969",
      "udp://open.demonii.com:1337",
      "udp://tracker.coppersurfer.tk:6969",
      "udp://tracker.leechers-paradise.org:6969",
      "udp://zer0day.ch:1337"
    ],
    "urlList": []
  },
  "previous": 127,
  "peers": 73,
  "last_updated": "2016-12-24T21:45:23.580Z"
}